<svg width="12" height="16" viewBox="0 0 12 16" fill="none" xmlns="http://www.w3.org/2000/svg">
<path fill-rule="evenodd" clip-rule="evenodd" d="M12 5.81818C12 8.78567 9.70897 11.2343 6.74858 11.5915C6.74955 11.6063 6.75 11.6213 6.75 11.6364V13.0909H7.5C7.91423 13.0909 8.25 13.4165 8.25 13.8182C8.25 14.2199 7.91423 14.5455 7.5 14.5455H6.75V15.2727C6.75 15.6744 6.41423 16 6 16C5.58577 16 5.25 15.6744 5.25 15.2727V14.5455H4.5C4.08579 14.5455 3.75 14.2199 3.75 13.8182C3.75 13.4165 4.08579 13.0909 4.5 13.0909H5.25V11.6364C5.25 11.6213 5.25045 11.6063 5.25142 11.5915C2.29099 11.2343 0 8.78567 0 5.81818C0 2.60489 2.68629 0 6 0C9.31373 0 12 2.60489 12 5.81818ZM1.50274 5.81818C1.50274 8.22669 3.51623 10.1791 6 10.1791C8.48378 10.1791 10.4972 8.22669 10.4972 5.81818C10.4972 3.40968 8.48378 1.4572 6 1.4572C3.51623 1.4572 1.50274 3.40968 1.50274 5.81818Z" fill="#FF2FDC"/>
</svg>
