<svg width="18" height="18" viewBox="0 0 18 18" fill="none" xmlns="http://www.w3.org/2000/svg">
<path fill-rule="evenodd" clip-rule="evenodd" d="M3.9375 4.5H14.0625C14.3438 4.5 14.6081 4.5675 14.841 4.69013L9.84375 8.4375C9.60033 8.62006 9.30427 8.71875 9 8.71875C8.69573 8.71875 8.39967 8.62006 8.15625 8.4375L3.159 4.69013C3.39188 4.5675 3.65738 4.5 3.9375 4.5ZM2.25112 6.11775L2.25 6.1875V11.8125C2.25 12.2601 2.42779 12.6893 2.74426 13.0057C3.06072 13.3222 3.48995 13.5 3.9375 13.5H14.0625C14.5101 13.5 14.9393 13.3222 15.2557 13.0057C15.5722 12.6893 15.75 12.2601 15.75 11.8125V6.1875L15.7489 6.11775L10.8562 9.7875C10.3207 10.1891 9.6694 10.4062 9 10.4062C8.3306 10.4062 7.67927 10.1891 7.14375 9.7875L2.25112 6.11775ZM0.5625 6.1875C0.5625 5.29239 0.918079 4.43395 1.55101 3.80101C2.18395 3.16808 3.04239 2.8125 3.9375 2.8125H14.0625C14.9576 2.8125 15.8161 3.16808 16.449 3.80101C17.0819 4.43395 17.4375 5.29239 17.4375 6.1875V11.8125C17.4375 12.7076 17.0819 13.5661 16.449 14.199C15.8161 14.8319 14.9576 15.1875 14.0625 15.1875H3.9375C3.04239 15.1875 2.18395 14.8319 1.55101 14.199C0.918079 13.5661 0.5625 12.7076 0.5625 11.8125V6.1875Z" fill="black" fill-opacity="0.6"/>
</svg>
