<svg width="15" height="14" viewBox="0 0 15 14" fill="none" xmlns="http://www.w3.org/2000/svg">
<path fill-rule="evenodd" clip-rule="evenodd" d="M10 0.666667C10 0.29848 10.3198 0 10.7143 0H13.5714C14.3604 0 15 0.596953 15 1.33333V4C15 4.36819 14.6802 4.66667 14.2857 4.66667C13.8912 4.66667 13.5714 4.36819 13.5714 4V2.27525L10.3336 5.29719C10.2979 5.33055 10.2593 5.3596 10.2186 5.38447C10.9767 6.28947 11.4286 7.4288 11.4286 8.66667C11.4286 11.6122 8.87021 14 5.71429 14C2.55837 14 0 11.6122 0 8.66667C0 5.72113 2.55837 3.33333 5.71429 3.33333C7.03993 3.33333 8.26014 3.75465 9.22957 4.46164C9.25621 4.42359 9.28743 4.38752 9.32321 4.35412L12.5597 1.33333H10.7143C10.3198 1.33333 10 1.03485 10 0.666667ZM5.71429 12.6642C3.34879 12.6642 1.43118 10.8745 1.43118 8.66667C1.43118 6.45887 3.34879 4.6691 5.71429 4.6691C8.07979 4.6691 9.99736 6.45887 9.99736 8.66667C9.99736 10.8745 8.07979 12.6642 5.71429 12.6642Z" fill="#1877F2"/>
</svg>
