<svg width="16" height="17" viewBox="0 0 16 17" fill="none" xmlns="http://www.w3.org/2000/svg">
<path fill-rule="evenodd" clip-rule="evenodd" d="M10 5C10 5.53043 9.78929 6.03914 9.41421 6.41421C9.03914 6.78929 8.53043 7 8 7C7.46957 7 6.96086 6.78929 6.58579 6.41421C6.21071 6.03914 6 5.53043 6 5C6 4.46957 6.21071 3.96086 6.58579 3.58579C6.96086 3.21071 7.46957 3 8 3C8.53043 3 9.03914 3.21071 9.41421 3.58579C9.78929 3.96086 10 4.46957 10 5ZM11.5 5C11.5 5.92826 11.1313 6.8185 10.4749 7.47487C9.8185 8.13125 8.92826 8.5 8 8.5C7.07174 8.5 6.1815 8.13125 5.52513 7.47487C4.86875 6.8185 4.5 5.92826 4.5 5C4.5 4.07174 4.86875 3.1815 5.52513 2.52513C6.1815 1.86875 7.07174 1.5 8 1.5C8.92826 1.5 9.8185 1.86875 10.4749 2.52513C11.1313 3.1815 11.5 4.07174 11.5 5ZM2.5 13C2.5 12.796 2.72 12.191 3.82 11.541C4.838 10.94 6.32 10.5 8 10.5C9.68 10.5 11.162 10.94 12.18 11.541C13.28 12.191 13.5 12.796 13.5 13C13.5 13.2652 13.3946 13.5196 13.2071 13.7071C13.0196 13.8946 12.7652 14 12.5 14H3.5C3.23478 14 2.98043 13.8946 2.79289 13.7071C2.60536 13.5196 2.5 13.2652 2.5 13ZM8 9C4.15 9 1 11 1 13C1 13.663 1.26339 14.2989 1.73223 14.7678C2.20107 15.2366 2.83696 15.5 3.5 15.5H12.5C13.163 15.5 13.7989 15.2366 14.2678 14.7678C14.7366 14.2989 15 13.663 15 13C15 11 11.85 9 8 9Z" fill="#808080"/>
</svg>
