<svg width="16" height="17" viewBox="0 0 16 17" fill="none" xmlns="http://www.w3.org/2000/svg">
<path fill-rule="evenodd" clip-rule="evenodd" d="M14.124 10.333C13.7163 9.78776 13.1661 9.36561 12.534 9.11296L12.501 9.10096C12.0424 8.91788 11.5445 8.85576 11.0551 8.92055C10.5656 8.98535 10.1011 9.17488 9.70596 9.47096L9.34596 9.73996C9.24965 9.81195 9.13063 9.84682 9.0107 9.83819C8.89077 9.82956 8.77797 9.778 8.69296 9.69296L6.80696 7.80696C6.72166 7.7219 6.66993 7.60889 6.66129 7.48874C6.65266 7.36858 6.6877 7.24934 6.75996 7.15296L7.02996 6.79296C7.32569 6.39808 7.51502 5.93386 7.57981 5.44479C7.6446 4.95572 7.58267 4.45821 7.39996 3.99996L7.38696 3.96796C7.13463 3.33509 6.71245 2.78418 6.16696 2.37596L5.97696 2.23296C5.67557 2.007 5.32388 1.85748 4.95204 1.79722C4.5802 1.73696 4.19929 1.76775 3.84196 1.88696L3.65196 1.94996C3.13902 2.12087 2.67295 2.40894 2.29073 2.79134C1.9085 3.17374 1.62064 3.63993 1.44996 4.15296C1.15782 5.03306 1.12141 5.97799 1.34496 6.87796C1.77413 8.59362 2.66141 10.1604 3.91196 11.411L5.08996 12.589C6.3406 13.8391 7.9074 14.7261 9.62296 15.155C10.523 15.381 11.468 15.345 12.348 15.051C12.8614 14.8802 13.3279 14.5921 13.7105 14.2095C14.0931 13.8269 14.3812 13.3604 14.552 12.847L14.615 12.658C14.734 12.3005 14.7647 11.9196 14.7042 11.5478C14.6438 11.1759 14.4941 10.8243 14.268 10.523L14.125 10.333H14.124ZM5.15996 3.71896L4.96996 3.57596C4.88579 3.51294 4.78759 3.47129 4.68378 3.45457C4.57998 3.43785 4.47366 3.44656 4.37396 3.47996L4.18396 3.54296C3.64596 3.72296 3.22396 4.14496 3.04396 4.68296C2.85141 5.26027 2.82747 5.88052 2.97496 6.47096C3.33128 7.89065 4.06563 9.18726 5.09996 10.223L6.27796 11.401C7.31365 12.4353 8.61027 13.1696 10.03 13.526C10.62 13.673 11.24 13.649 11.817 13.457C12.356 13.277 12.778 12.855 12.957 12.317L13.021 12.127C13.0542 12.0272 13.0628 11.9208 13.0459 11.817C13.029 11.7132 12.9871 11.615 12.924 11.531L12.781 11.341C12.5578 11.0427 12.2568 10.8116 11.911 10.673L11.878 10.66C11.6871 10.5839 11.48 10.5582 11.2764 10.5851C11.0727 10.6121 10.8794 10.6909 10.715 10.814L10.355 11.084C9.93514 11.3986 9.41592 11.5513 8.89259 11.514C8.36926 11.4767 7.87693 11.252 7.50596 10.881L5.61996 8.99496C5.24869 8.62393 5.02376 8.13141 4.98646 7.60785C4.94917 7.08429 5.10203 6.56486 5.41696 6.14496L5.68696 5.78496C5.93696 5.45096 5.99596 5.01096 5.84096 4.62296L5.82796 4.59096C5.68966 4.24443 5.45853 3.94271 5.15996 3.71896Z" fill="#808080"/>
</svg>
