<svg width="64" height="34" viewBox="0 0 64 34" fill="none" xmlns="http://www.w3.org/2000/svg">
<path d="M7.984 25.16C7.44 25.16 7.07733 25.0213 6.896 24.744C6.71467 24.456 6.624 24.0027 6.624 23.384L6.864 23.464C6.288 24.6267 5.17867 25.208 3.536 25.208C2.78933 25.208 2.17067 25.0747 1.68 24.808C1.18933 24.5413 0.821333 24.1947 0.576 23.768C0.341333 23.3307 0.224 22.8507 0.224 22.328C0.224 21.432 0.549333 20.7227 1.2 20.2C1.85067 19.6773 2.71467 19.416 3.792 19.416C4.464 19.416 5.05067 19.5173 5.552 19.72C6.064 19.9227 6.49067 20.2053 6.832 20.568L6.384 20.536C6.36267 19.64 6.18667 19.0053 5.856 18.632C5.52533 18.248 5.04533 18.056 4.416 18.056C4.128 18.056 3.82933 18.104 3.52 18.2C3.21067 18.2853 2.90133 18.376 2.592 18.472C2.29333 18.568 1.98933 18.616 1.68 18.616C1.296 18.616 0.997333 18.5093 0.784 18.296C0.570667 18.0827 0.464 17.8053 0.464 17.464C0.464 16.9947 0.666667 16.5733 1.072 16.2C1.47733 15.8267 2.01067 15.5333 2.672 15.32C3.344 15.096 4.06933 14.984 4.848 14.984C5.84 14.984 6.69867 15.1813 7.424 15.576C8.16 15.9707 8.688 16.5733 9.008 17.384C9.25333 17.992 9.424 18.68 9.52 19.448C9.62667 20.2053 9.68 21.016 9.68 21.88C9.68 22.744 9.62133 23.416 9.504 23.896C9.39733 24.3653 9.216 24.696 8.96 24.888C8.71467 25.0693 8.38933 25.16 7.984 25.16ZM4.752 22.968C4.99733 22.968 5.248 22.9307 5.504 22.856C5.76 22.7707 5.97333 22.6533 6.144 22.504C6.32533 22.3547 6.416 22.168 6.416 21.944C6.416 21.7413 6.34667 21.576 6.208 21.448C6.06933 21.3093 5.88267 21.2133 5.648 21.16C5.41333 21.096 5.16267 21.064 4.896 21.064C4.42667 21.064 4.05867 21.1547 3.792 21.336C3.52533 21.5173 3.392 21.752 3.392 22.04C3.392 22.3173 3.51467 22.5413 3.76 22.712C4.00533 22.8827 4.336 22.968 4.752 22.968ZM18.6839 17.672C18.7905 17.2347 18.9825 16.84 19.2599 16.488C19.5372 16.136 19.8732 15.8587 20.2679 15.656C20.6732 15.4427 21.1105 15.336 21.5799 15.336C22.1559 15.336 22.6625 15.4693 23.0999 15.736C23.5479 16.0027 23.8999 16.44 24.1559 17.048C24.4119 17.656 24.5399 18.4667 24.5399 19.48C24.5399 19.9813 24.5185 20.488 24.4759 21C24.4332 21.512 24.3799 21.9867 24.3159 22.424C24.2519 22.8613 24.1825 23.2293 24.1079 23.528C23.9799 24.0293 23.7559 24.4027 23.4359 24.648C23.1265 24.8933 22.7425 25.016 22.2839 25.016C21.8572 25.016 21.5212 24.888 21.2759 24.632C21.0305 24.3653 20.9079 23.992 20.9079 23.512C20.9079 23.32 20.9345 23.064 20.9879 22.744C21.0412 22.424 21.0999 22.0773 21.1639 21.704C21.2279 21.3307 21.2865 20.9627 21.3399 20.6C21.3932 20.2373 21.4199 19.9227 21.4199 19.656C21.4199 19.2613 21.3452 18.9573 21.1959 18.744C21.0465 18.52 20.8332 18.408 20.5559 18.408C20.2252 18.408 19.9532 18.6107 19.7399 19.016C19.5372 19.4213 19.4092 20.008 19.3559 20.776C19.3239 21.384 19.2865 21.928 19.2439 22.408C19.2012 22.8773 19.1212 23.272 19.0039 23.592C18.8865 23.9547 18.7105 24.2267 18.4759 24.408C18.2412 24.5893 17.9265 24.68 17.5319 24.68C17.1052 24.68 16.7585 24.552 16.4919 24.296C16.2359 24.04 16.0972 23.64 16.0759 23.096C16.0652 22.7547 16.0599 22.3547 16.0599 21.896C16.0705 21.4373 16.0759 20.984 16.0759 20.536C16.0865 20.088 16.0812 19.7147 16.0599 19.416C16.0385 18.9467 15.9532 18.6053 15.8039 18.392C15.6545 18.168 15.4359 18.056 15.1479 18.056C14.8385 18.056 14.5932 18.216 14.4119 18.536C14.2305 18.8453 14.1132 19.2827 14.0599 19.848C14.0385 20.1147 14.0279 20.44 14.0279 20.824C14.0385 21.208 14.0439 21.592 14.0439 21.976C14.0545 22.3493 14.0545 22.6693 14.0439 22.936C14.0225 23.672 13.8732 24.2 13.5959 24.52C13.3292 24.8293 12.9559 24.984 12.4759 24.984C11.9319 24.984 11.5265 24.8293 11.2599 24.52C11.0039 24.2107 10.8439 23.7093 10.7799 23.016C10.7372 22.5787 10.7052 22.1413 10.6839 21.704C10.6625 21.2667 10.6519 20.8293 10.6519 20.392C10.6519 19.9547 10.6679 19.4853 10.6999 18.984C10.7319 18.4827 10.7692 18.0027 10.8119 17.544C10.8972 16.8827 11.0572 16.328 11.2919 15.88C11.5265 15.432 11.9105 15.208 12.4439 15.208C12.9239 15.208 13.2652 15.3627 13.4679 15.672C13.6812 15.9707 13.7879 16.4347 13.7879 17.064C13.7879 17.2773 13.7719 17.4747 13.7399 17.656L13.6919 17.336C13.9052 16.6427 14.2572 16.104 14.7479 15.72C15.2385 15.3253 15.7825 15.128 16.3799 15.128C17.1585 15.128 17.7612 15.3733 18.1879 15.864C18.6252 16.344 18.8652 17.0107 18.9079 17.864L18.6839 17.672ZM27.4156 12.728C28.013 12.728 28.4396 12.872 28.6956 13.16C28.9623 13.448 29.0956 13.784 29.0956 14.168C29.0956 14.6373 28.9356 15 28.6156 15.256C28.2956 15.512 27.8423 15.64 27.2556 15.64C26.701 15.64 26.2796 15.5013 25.9916 15.224C25.7143 14.936 25.5756 14.6053 25.5756 14.232C25.5756 13.7307 25.7463 13.3573 26.0876 13.112C26.429 12.856 26.8716 12.728 27.4156 12.728ZM27.5596 16.296C28.0396 16.296 28.413 16.616 28.6796 17.256C28.957 17.896 29.0956 18.9147 29.0956 20.312C29.0956 22.0293 28.925 23.2667 28.5836 24.024C28.253 24.7813 27.741 25.16 27.0476 25.16C26.5143 25.16 26.1196 24.8827 25.8636 24.328C25.6183 23.7627 25.4956 22.7813 25.4956 21.384C25.4956 19.6667 25.6876 18.392 26.0716 17.56C26.4556 16.7173 26.9516 16.296 27.5596 16.296ZM34.3621 25.176C32.8368 25.176 31.7115 24.792 30.9861 24.024C30.2715 23.256 29.9141 22.1893 29.9141 20.824C29.9141 19.768 30.1275 18.8347 30.5541 18.024C30.9808 17.2027 31.5941 16.5627 32.3941 16.104C33.2048 15.6347 34.1755 15.4 35.3061 15.4C36.3301 15.4 37.1141 15.592 37.6581 15.976C38.2021 16.36 38.4741 16.8827 38.4741 17.544C38.4741 18.0027 38.3248 18.3653 38.0261 18.632C37.7275 18.8987 37.2955 19.032 36.7301 19.032C36.4955 19.032 36.2661 19.016 36.0421 18.984C35.8288 18.952 35.6155 18.9253 35.4021 18.904C35.1995 18.8827 34.9915 18.872 34.7781 18.872C34.2661 18.872 33.8768 18.9947 33.6101 19.24C33.3435 19.4853 33.2101 19.848 33.2101 20.328C33.2101 20.7653 33.3435 21.0907 33.6101 21.304C33.8768 21.5067 34.2395 21.608 34.6981 21.608C34.9008 21.608 35.1141 21.5867 35.3381 21.544C35.5621 21.4907 35.7915 21.4427 36.0261 21.4C36.2715 21.3573 36.5061 21.336 36.7301 21.336C37.1568 21.336 37.5088 21.4587 37.7861 21.704C38.0741 21.9387 38.2181 22.2907 38.2181 22.76C38.2181 23.2293 38.0741 23.6507 37.7861 24.024C37.5088 24.3867 37.0821 24.6693 36.5061 24.872C35.9408 25.0747 35.2261 25.176 34.3621 25.176ZM46.5309 25.16C45.9869 25.16 45.6242 25.0213 45.4429 24.744C45.2615 24.456 45.1709 24.0027 45.1709 23.384L45.4109 23.464C44.8349 24.6267 43.7255 25.208 42.0829 25.208C41.3362 25.208 40.7175 25.0747 40.2269 24.808C39.7362 24.5413 39.3682 24.1947 39.1229 23.768C38.8882 23.3307 38.7709 22.8507 38.7709 22.328C38.7709 21.432 39.0962 20.7227 39.7469 20.2C40.3975 19.6773 41.2615 19.416 42.3389 19.416C43.0109 19.416 43.5975 19.5173 44.0989 19.72C44.6109 19.9227 45.0375 20.2053 45.3789 20.568L44.9309 20.536C44.9095 19.64 44.7335 19.0053 44.4029 18.632C44.0722 18.248 43.5922 18.056 42.9629 18.056C42.6749 18.056 42.3762 18.104 42.0669 18.2C41.7575 18.2853 41.4482 18.376 41.1389 18.472C40.8402 18.568 40.5362 18.616 40.2269 18.616C39.8429 18.616 39.5442 18.5093 39.3309 18.296C39.1175 18.0827 39.0109 17.8053 39.0109 17.464C39.0109 16.9947 39.2135 16.5733 39.6189 16.2C40.0242 15.8267 40.5575 15.5333 41.2189 15.32C41.8909 15.096 42.6162 14.984 43.3949 14.984C44.3869 14.984 45.2455 15.1813 45.9709 15.576C46.7069 15.9707 47.2349 16.5733 47.5549 17.384C47.8002 17.992 47.9709 18.68 48.0669 19.448C48.1735 20.2053 48.2269 21.016 48.2269 21.88C48.2269 22.744 48.1682 23.416 48.0509 23.896C47.9442 24.3653 47.7629 24.696 47.5069 24.888C47.2615 25.0693 46.9362 25.16 46.5309 25.16ZM43.2989 22.968C43.5442 22.968 43.7949 22.9307 44.0509 22.856C44.3069 22.7707 44.5202 22.6533 44.6909 22.504C44.8722 22.3547 44.9629 22.168 44.9629 21.944C44.9629 21.7413 44.8935 21.576 44.7549 21.448C44.6162 21.3093 44.4295 21.2133 44.1949 21.16C43.9602 21.096 43.7095 21.064 43.4429 21.064C42.9735 21.064 42.6055 21.1547 42.3389 21.336C42.0722 21.5173 41.9389 21.752 41.9389 22.04C41.9389 22.3173 42.0615 22.5413 42.3069 22.712C42.5522 22.8827 42.8829 22.968 43.2989 22.968Z" fill="#111111"/>
<path d="M54.8147 15.0996C54.5794 16.1599 54.4301 16.6983 54.0729 17.0574C53.3676 17.7666 52.5018 17.5838 51.7961 16.8742C51.485 16.5614 51.2846 16.359 51.0411 15.5833C51.0411 15.5833 51.0132 14.95 50.2127 14.2073C49.4667 13.3955 48.8332 13.3708 48.8332 13.3708C48.0619 13.1258 47.871 12.9283 47.5603 12.6159C46.8546 11.9062 46.672 11.0356 47.3777 10.326C47.7348 9.96688 48.2704 9.8177 49.3251 9.58049C49.3251 9.58049 51.3843 9.06637 52.6595 9.13274C53.5804 9.18127 54.2853 9.89329 54.2853 9.89329L54.5033 10.1125C54.5033 10.1125 55.2427 10.8519 55.2602 11.7478C55.2836 13.0313 54.8145 15.0998 54.8147 15.0996ZM53.5295 7.40492C54.2674 8.14682 55.7974 7.81096 56.9471 6.655C58.0967 5.49904 58.4307 3.9605 57.6929 3.2186C56.955 2.4767 55.4249 2.81256 54.2753 3.96852C53.1257 5.12448 52.7917 6.66302 53.5295 7.40492ZM50.2333 8.14481C51.0281 8.43917 52.0423 7.66879 52.4984 6.42381C52.9544 5.17882 52.68 3.93082 51.8854 3.63627C51.0907 3.34171 50.0765 4.11249 49.6203 5.35727C49.1642 6.60226 49.4388 7.85006 50.2333 8.14481ZM56.6354 10.5279C57.3732 11.2698 58.9035 10.9342 60.0531 9.77819C61.2027 8.62223 61.5365 7.0835 60.7987 6.3416C60.0609 5.5997 58.5308 5.93556 57.3812 7.09152C56.2316 8.24748 55.8976 9.78602 56.6354 10.5279ZM60.3837 12.1811C60.0908 11.3817 58.8498 11.106 57.6115 11.5648C56.3732 12.0235 55.607 13.0434 55.8999 13.8428C56.1931 14.642 57.434 14.9178 58.6722 14.4592C59.9103 14.0006 60.6767 12.9806 60.3837 12.1811Z" fill="#111111"/>
</svg>
