<svg width="173" height="170" viewBox="0 0 173 170" fill="none" xmlns="http://www.w3.org/2000/svg">
<path d="M37.3739 163.48C35.7419 163.48 34.6539 163.064 34.1099 162.232C33.5659 161.368 33.2939 160.008 33.2939 158.152L34.0139 158.392C32.2859 161.88 28.9579 163.624 24.0299 163.624C21.7899 163.624 19.9339 163.224 18.4619 162.424C16.9899 161.624 15.8859 160.584 15.1499 159.304C14.4459 157.992 14.0939 156.552 14.0939 154.984C14.0939 152.296 15.0699 150.168 17.0219 148.6C18.9739 147.032 21.5659 146.248 24.7979 146.248C26.8139 146.248 28.5739 146.552 30.0779 147.16C31.6139 147.768 32.8939 148.616 33.9179 149.704L32.5739 149.608C32.5099 146.92 31.9819 145.016 30.9899 143.896C29.9979 142.744 28.5579 142.168 26.6699 142.168C25.8059 142.168 24.9099 142.312 23.9819 142.6C23.0539 142.856 22.1259 143.128 21.1979 143.416C20.3019 143.704 19.3899 143.848 18.4619 143.848C17.3099 143.848 16.4139 143.528 15.7739 142.888C15.1339 142.248 14.8139 141.416 14.8139 140.392C14.8139 138.984 15.4219 137.72 16.6379 136.6C17.8539 135.48 19.4539 134.6 21.4379 133.96C23.4539 133.288 25.6299 132.952 27.9659 132.952C30.9419 132.952 33.5179 133.544 35.6939 134.728C37.9019 135.912 39.4859 137.72 40.4459 140.152C41.1819 141.976 41.6939 144.04 41.9819 146.344C42.3019 148.616 42.4619 151.048 42.4619 153.64C42.4619 156.232 42.2859 158.248 41.9339 159.688C41.6139 161.096 41.0699 162.088 40.3019 162.664C39.5659 163.208 38.5899 163.48 37.3739 163.48ZM27.6779 156.904C28.4139 156.904 29.1659 156.792 29.9339 156.568C30.7019 156.312 31.3419 155.96 31.8539 155.512C32.3979 155.064 32.6699 154.504 32.6699 153.832C32.6699 153.224 32.4619 152.728 32.0459 152.344C31.6299 151.928 31.0699 151.64 30.3659 151.48C29.6619 151.288 28.9099 151.192 28.1099 151.192C26.7019 151.192 25.5979 151.464 24.7979 152.008C23.9979 152.552 23.5979 153.256 23.5979 154.12C23.5979 154.952 23.9659 155.624 24.7019 156.136C25.4379 156.648 26.4299 156.904 27.6779 156.904ZM69.4735 141.016C69.7935 139.704 70.3695 138.52 71.2015 137.464C72.0335 136.408 73.0415 135.576 74.2255 134.968C75.4415 134.328 76.7535 134.008 78.1615 134.008C79.8895 134.008 81.4095 134.408 82.7215 135.208C84.0655 136.008 85.1215 137.32 85.8895 139.144C86.6575 140.968 87.0415 143.4 87.0415 146.44C87.0415 147.944 86.9775 149.464 86.8495 151C86.7215 152.536 86.5615 153.96 86.3695 155.272C86.1775 156.584 85.9695 157.688 85.7455 158.584C85.3615 160.088 84.6895 161.208 83.7295 161.944C82.8015 162.68 81.6495 163.048 80.2735 163.048C78.9935 163.048 77.9855 162.664 77.2495 161.896C76.5135 161.096 76.1455 159.976 76.1455 158.536C76.1455 157.96 76.2255 157.192 76.3855 156.232C76.5455 155.272 76.7215 154.232 76.9135 153.112C77.1055 151.992 77.2815 150.888 77.4415 149.8C77.6015 148.712 77.6815 147.768 77.6815 146.968C77.6815 145.784 77.4575 144.872 77.0095 144.232C76.5615 143.56 75.9215 143.224 75.0895 143.224C74.0975 143.224 73.2815 143.832 72.6415 145.048C72.0335 146.264 71.6495 148.024 71.4895 150.328C71.3935 152.152 71.2815 153.784 71.1535 155.224C71.0255 156.632 70.7855 157.816 70.4335 158.776C70.0815 159.864 69.5535 160.68 68.8495 161.224C68.1455 161.768 67.2015 162.04 66.0175 162.04C64.7375 162.04 63.6975 161.656 62.8975 160.888C62.1295 160.12 61.7135 158.92 61.6495 157.288C61.6175 156.264 61.6015 155.064 61.6015 153.688C61.6335 152.312 61.6495 150.952 61.6495 149.608C61.6815 148.264 61.6655 147.144 61.6015 146.248C61.5375 144.84 61.2815 143.816 60.8335 143.176C60.3855 142.504 59.7295 142.168 58.8655 142.168C57.9375 142.168 57.2015 142.648 56.6575 143.608C56.1135 144.536 55.7615 145.848 55.6015 147.544C55.5375 148.344 55.5055 149.32 55.5055 150.472C55.5375 151.624 55.5535 152.776 55.5535 153.928C55.5855 155.048 55.5855 156.008 55.5535 156.808C55.4895 159.016 55.0415 160.6 54.2095 161.56C53.4095 162.488 52.2895 162.952 50.8495 162.952C49.2175 162.952 48.0015 162.488 47.2015 161.56C46.4335 160.632 45.9535 159.128 45.7615 157.048C45.6335 155.736 45.5375 154.424 45.4735 153.112C45.4095 151.8 45.3775 150.488 45.3775 149.176C45.3775 147.864 45.4255 146.456 45.5215 144.952C45.6175 143.448 45.7295 142.008 45.8575 140.632C46.1135 138.648 46.5935 136.984 47.2975 135.64C48.0015 134.296 49.1535 133.624 50.7535 133.624C52.1935 133.624 53.2175 134.088 53.8255 135.016C54.4655 135.912 54.7855 137.304 54.7855 139.192C54.7855 139.832 54.7375 140.424 54.6415 140.968L54.4975 140.008C55.1375 137.928 56.1935 136.312 57.6655 135.16C59.1375 133.976 60.7695 133.384 62.5615 133.384C64.8975 133.384 66.7055 134.12 67.9855 135.592C69.2975 137.032 70.0175 139.032 70.1455 141.592L69.4735 141.016ZM95.6688 126.184C97.4608 126.184 98.7408 126.616 99.5088 127.48C100.309 128.344 100.709 129.352 100.709 130.504C100.709 131.912 100.229 133 99.2688 133.768C98.3088 134.536 96.9488 134.92 95.1888 134.92C93.5248 134.92 92.2608 134.504 91.3968 133.672C90.5648 132.808 90.1488 131.816 90.1488 130.696C90.1488 129.192 90.6608 128.072 91.6848 127.336C92.7088 126.568 94.0368 126.184 95.6688 126.184ZM96.1008 136.888C97.5408 136.888 98.6608 137.848 99.4608 139.768C100.293 141.688 100.709 144.744 100.709 148.936C100.709 154.088 100.197 157.8 99.1728 160.072C98.1808 162.344 96.6448 163.48 94.5648 163.48C92.9648 163.48 91.7808 162.648 91.0128 160.984C90.2768 159.288 89.9088 156.344 89.9088 152.152C89.9088 147 90.4848 143.176 91.6367 140.68C92.7888 138.152 94.2768 136.888 96.1008 136.888ZM116.508 163.528C111.932 163.528 108.556 162.376 106.38 160.072C104.236 157.768 103.164 154.568 103.164 150.472C103.164 147.304 103.804 144.504 105.084 142.072C106.364 139.608 108.204 137.688 110.604 136.312C113.036 134.904 115.948 134.2 119.34 134.2C122.412 134.2 124.764 134.776 126.396 135.928C128.028 137.08 128.844 138.648 128.844 140.632C128.844 142.008 128.396 143.096 127.5 143.896C126.604 144.696 125.308 145.096 123.612 145.096C122.908 145.096 122.22 145.048 121.548 144.952C120.908 144.856 120.268 144.776 119.628 144.712C119.02 144.648 118.396 144.616 117.756 144.616C116.22 144.616 115.052 144.984 114.252 145.72C113.452 146.456 113.052 147.544 113.052 148.984C113.052 150.296 113.452 151.272 114.252 151.912C115.052 152.52 116.14 152.824 117.516 152.824C118.124 152.824 118.764 152.76 119.436 152.632C120.108 152.472 120.796 152.328 121.5 152.2C122.236 152.072 122.94 152.008 123.612 152.008C124.892 152.008 125.948 152.376 126.78 153.112C127.644 153.816 128.076 154.872 128.076 156.28C128.076 157.688 127.644 158.952 126.78 160.072C125.948 161.16 124.668 162.008 122.94 162.616C121.244 163.224 119.1 163.528 116.508 163.528ZM153.015 163.48C151.383 163.48 150.295 163.064 149.751 162.232C149.207 161.368 148.935 160.008 148.935 158.152L149.655 158.392C147.927 161.88 144.599 163.624 139.671 163.624C137.431 163.624 135.575 163.224 134.103 162.424C132.631 161.624 131.527 160.584 130.791 159.304C130.087 157.992 129.735 156.552 129.735 154.984C129.735 152.296 130.711 150.168 132.663 148.6C134.615 147.032 137.207 146.248 140.439 146.248C142.455 146.248 144.215 146.552 145.719 147.16C147.255 147.768 148.535 148.616 149.559 149.704L148.215 149.608C148.151 146.92 147.623 145.016 146.631 143.896C145.639 142.744 144.199 142.168 142.311 142.168C141.447 142.168 140.551 142.312 139.623 142.6C138.695 142.856 137.767 143.128 136.839 143.416C135.943 143.704 135.031 143.848 134.103 143.848C132.951 143.848 132.055 143.528 131.415 142.888C130.775 142.248 130.455 141.416 130.455 140.392C130.455 138.984 131.063 137.72 132.279 136.6C133.495 135.48 135.095 134.6 137.079 133.96C139.095 133.288 141.271 132.952 143.607 132.952C146.583 132.952 149.159 133.544 151.335 134.728C153.543 135.912 155.127 137.72 156.087 140.152C156.823 141.976 157.335 144.04 157.623 146.344C157.943 148.616 158.103 151.048 158.103 153.64C158.103 156.232 157.927 158.248 157.575 159.688C157.255 161.096 156.711 162.088 155.943 162.664C155.207 163.208 154.231 163.48 153.015 163.48ZM143.319 156.904C144.055 156.904 144.807 156.792 145.575 156.568C146.343 156.312 146.983 155.96 147.495 155.512C148.039 155.064 148.311 154.504 148.311 153.832C148.311 153.224 148.103 152.728 147.687 152.344C147.271 151.928 146.711 151.64 146.007 151.48C145.303 151.288 144.551 151.192 143.751 151.192C142.343 151.192 141.239 151.464 140.439 152.008C139.639 152.552 139.239 153.256 139.239 154.12C139.239 154.952 139.607 155.624 140.343 156.136C141.079 156.648 142.071 156.904 143.319 156.904Z" fill="#111111"/>
<g clip-path="url(#clip0_71_48)">
<path d="M115.938 75.4377C120.144 82.0594 122.126 85.5751 122.126 89.2422C122.126 96.4844 116.747 99.9959 109.501 99.9959C106.307 99.9959 104.245 99.9918 99.0336 97.2809C99.0336 97.2809 95.6572 94.1911 87.7558 94.5085C79.7806 94.1932 76.4021 97.3198 76.4021 97.3198C71.1911 100.029 69.203 100 66.0129 100C58.7666 100 53.3836 96.4926 53.3836 89.2463C53.3836 85.5792 55.3718 82.0676 59.5754 75.4418C59.5754 75.4418 67.5219 62.2453 74.4078 56.0372C79.3834 51.5572 86.6378 51.5735 86.6378 51.5735H88.8758C88.8758 51.5735 96.4476 51.5531 101.112 56.0372C107.785 62.4706 115.938 75.4397 115.938 75.4377ZM70.0527 42.7486C77.6286 42.7486 83.7692 33.1784 83.7692 21.3743C83.7692 9.57022 77.6286 0 70.0527 0C62.4768 0 56.3362 9.57022 56.3362 21.3743C56.3362 33.1784 62.4768 42.7486 70.0527 42.7486ZM56.9075 63.4493C62.4911 60.8714 63.7647 51.7312 59.7495 43.0332C55.7342 34.3353 47.9536 29.372 42.3699 31.9478C36.7863 34.5236 35.5147 43.6659 39.5279 52.3639C43.5431 61.0619 51.3238 66.0231 56.9075 63.4493ZM101.943 42.7486C109.519 42.7486 115.662 33.1784 115.662 21.3743C115.662 9.57022 109.519 0 101.943 0C94.3673 0 88.2267 9.57022 88.2267 21.3743C88.2267 33.1784 94.3673 42.7486 101.943 42.7486ZM129.628 31.9458C124.042 29.3679 116.264 34.3312 112.248 43.0312C108.233 51.7312 109.507 60.8714 115.093 63.4493C120.678 66.0251 128.457 61.0619 132.472 52.3639C136.487 43.6659 135.214 34.5236 129.628 31.9458Z" fill="#111111"/>
</g>
<defs>
<clipPath id="clip0_71_48">
<rect width="100" height="100" fill="white" transform="translate(36)"/>
</clipPath>
</defs>
</svg>
