<svg width="12" height="12" viewBox="0 0 12 12" fill="none" xmlns="http://www.w3.org/2000/svg">
<g clip-path="url(#clip0_71_61)">
<path opacity="0.5" d="M4.39202 11C3.54942 10.6239 2.85345 10.0379 2.396 9.25342" stroke="#1C274C" stroke-width="3.75" stroke-linecap="round"/>
<path opacity="0.5" d="M7.4126 1.09298C8.25105 0.85441 9.11665 1.08153 9.72085 1.69862" stroke="#1C274C" stroke-width="3.75" stroke-linecap="round"/>
<path d="M5.20831 4.76254C5.31266 4.94145 5.54226 5.00191 5.72116 4.89758C5.90006 4.79325 5.96051 4.56364 5.85621 4.38473L5.20831 4.76254ZM3.76909 6.06631C3.87342 6.24521 4.10303 6.30566 4.28194 6.20131C4.46085 6.09701 4.52131 5.86741 4.41698 5.68846L3.76909 6.06631ZM8.02381 5.07451L8.20991 5.40011C8.29676 5.35046 8.36016 5.26821 8.38606 5.17161C8.41196 5.07496 8.39816 4.97202 8.34776 4.88562L8.02381 5.07451ZM6.89206 7.64996C6.99641 7.82886 7.22601 7.88931 7.40491 7.78501C7.58386 7.68066 7.64431 7.45106 7.53996 7.27216L6.89206 7.64996ZM2.19144 4.50881C2.50827 4.32773 2.82018 4.43904 2.92721 4.62258L3.5751 4.24477C3.21716 3.63097 2.41355 3.51802 1.81929 3.85765L2.19144 4.50881ZM1.81929 3.85765C1.22387 4.19794 0.917724 4.94841 1.27752 5.56541L1.9254 5.18761C1.82024 5.00726 1.87576 4.68922 2.19144 4.50881L1.81929 3.85765ZM3.52454 1.87513L3.94549 2.59698L4.59337 2.21917L4.17243 1.49732L3.52454 1.87513ZM3.94549 2.59698L5.20831 4.76254L5.85621 4.38473L4.59337 2.21917L3.94549 2.59698ZM4.41698 5.68846L3.5751 4.24477L2.92721 4.62258L3.76909 6.06631L4.41698 5.68846ZM3.5751 4.24477L2.52274 2.44014L1.87485 2.81795L2.92721 4.62258L3.5751 4.24477ZM2.78877 1.76136C3.10561 1.58028 3.41751 1.69159 3.52454 1.87513L4.17243 1.49732C3.8145 0.88352 3.01089 0.770575 2.41663 1.1102L2.78877 1.76136ZM2.41663 1.1102C1.8212 1.45049 1.51506 2.20095 1.87485 2.81795L2.52274 2.44014C2.41757 2.25979 2.47309 1.94177 2.78877 1.76136L2.41663 1.1102ZM5.59516 1.65416L6.85801 3.81972L7.50591 3.44191L6.24306 1.27635L5.59516 1.65416ZM6.85801 3.81972L7.69991 5.26341L8.34776 4.88562L7.50591 3.44191L6.85801 3.81972ZM4.85941 1.54039C5.17626 1.35932 5.48816 1.47063 5.59516 1.65416L6.24306 1.27635C5.88511 0.662555 5.08151 0.54961 4.48726 0.889235L4.85941 1.54039ZM4.48726 0.889235C3.89184 1.22953 3.58569 1.97999 3.94549 2.59698L4.59337 2.21917C4.48821 2.03883 4.54373 1.72081 4.85941 1.54039L4.48726 0.889235ZM8.50771 2.8769L9.77051 5.04246L10.4184 4.66465L9.15556 2.49909L8.50771 2.8769ZM7.77191 2.76313C8.08876 2.58206 8.40066 2.69337 8.50771 2.8769L9.15556 2.49909C8.79766 1.8853 7.99406 1.77235 7.39976 2.11198L7.77191 2.76313ZM7.39976 2.11198C6.80436 2.45227 6.49821 3.20273 6.85801 3.81972L7.50591 3.44191C7.40071 3.26157 7.45626 2.94355 7.77191 2.76313L7.39976 2.11198ZM1.27752 5.56541L3.17176 8.81376L3.81965 8.43591L1.9254 5.18761L1.27752 5.56541ZM8.29276 9.30101C6.60931 10.2632 4.62412 9.81546 3.81965 8.43591L3.17176 8.81376C4.22713 10.6236 6.70401 11.0729 8.66491 9.95221L8.29276 9.30101ZM9.77051 5.04246C10.5731 6.41881 9.97511 8.33956 8.29276 9.30101L8.66491 9.95221C10.627 8.83086 11.4757 6.47766 10.4184 4.66465L9.77051 5.04246ZM7.53996 7.27216C7.20231 6.69311 7.43866 5.84086 8.20991 5.40011L7.83776 4.74894C6.78681 5.34961 6.29981 6.63431 6.89206 7.64996L7.53996 7.27216Z" fill="white"/>
</g>
<defs>
<clipPath id="clip0_71_61">
<rect width="12" height="12" fill="white"/>
</clipPath>
</defs>
</svg>
